<svg width="135" height="52" viewBox="0 0 135 52" fill="none" xmlns="http://www.w3.org/2000/svg">
<path d="M7.02734 19.416C7.36458 19.4707 7.67448 19.5117 7.95703 19.5391C8.2487 19.5573 8.51758 19.5664 8.76367 19.5664C10.3496 19.5664 11.5618 19.2064 12.4004 18.4863C13.2389 17.7572 13.6582 16.7181 13.6582 15.3691C13.6582 14.1113 13.2617 13.1224 12.4688 12.4023C11.6758 11.6732 10.5911 11.3086 9.21484 11.3086C8.89583 11.3086 8.56771 11.3223 8.23047 11.3496C7.90234 11.377 7.51953 11.4271 7.08203 11.5C7.0638 12.6393 7.05013 13.7923 7.04102 14.959C7.0319 16.1257 7.02734 17.6113 7.02734 19.416ZM0.929688 27.7969C1.01172 27.806 1.09375 27.8151 1.17578 27.8242C1.25781 27.8242 1.38086 27.8242 1.54492 27.8242C2.27409 27.8242 2.76628 27.6009 3.02148 27.1543C3.28581 26.7077 3.41797 25.6823 3.41797 24.0781V22.9023C3.41797 22.3555 3.41341 21.9316 3.4043 21.6309C3.39518 21.3301 3.38151 21.043 3.36328 20.7695L3.33594 17.4609V12.6484C3.33594 11.9466 3.1901 11.4453 2.89844 11.1445C2.60677 10.8438 2.1237 10.6934 1.44922 10.6934H1.17578V9.42188C1.92318 9.48568 2.61133 9.53125 3.24023 9.55859C3.87826 9.58594 4.4707 9.59961 5.01758 9.59961C5.86523 9.59961 6.83138 9.57227 7.91602 9.51758C9.00977 9.45378 9.66602 9.42188 9.88477 9.42188C12.2272 9.42188 14.0684 9.93685 15.4082 10.9668C16.748 11.9967 17.418 13.3958 17.418 15.1641C17.418 17.0234 16.7253 18.5 15.3398 19.5938C13.9544 20.6784 12.054 21.2207 9.63867 21.2207C9.23763 21.2207 8.52214 21.1751 7.49219 21.084C7.29167 21.0658 7.14583 21.0521 7.05469 21.043V24.4336C7.05469 25.9193 7.19596 26.849 7.47852 27.2227C7.77018 27.5872 8.34896 27.7695 9.21484 27.7695H9.69336V29C8.79102 28.9453 7.94792 28.9043 7.16406 28.877C6.38021 28.8496 5.6556 28.8359 4.99023 28.8359C4.69857 28.8359 4.21549 28.8496 3.54102 28.877C2.86654 28.9043 1.99609 28.9453 0.929688 29V27.7969ZM25.9695 22.4785C25.7689 22.5332 25.4773 22.6152 25.0945 22.7246C22.4877 23.4447 21.1843 24.2969 21.1843 25.2812C21.1843 25.8281 21.362 26.2884 21.7175 26.6621C22.073 27.0267 22.5196 27.209 23.0573 27.209C23.4037 27.209 23.7956 27.1224 24.2331 26.9492C24.6797 26.776 25.2585 26.4798 25.9695 26.0605V22.4785ZM31.4245 26.6758L31.9304 27.7148C31.101 28.2617 30.3536 28.6719 29.6882 28.9453C29.032 29.2096 28.4441 29.3418 27.9245 29.3418C27.2956 29.3418 26.8126 29.1823 26.4753 28.8633C26.1472 28.5352 25.9558 28.043 25.9011 27.3867C24.9076 28.0794 24.0691 28.5807 23.3855 28.8906C22.7019 29.1914 22.0866 29.3418 21.5398 29.3418C20.5827 29.3418 19.767 28.9727 19.0925 28.2344C18.418 27.487 18.0808 26.5938 18.0808 25.5547C18.0808 23.8047 20.0359 22.4785 23.946 21.5762C24.7937 21.3757 25.459 21.2161 25.9421 21.0977C25.9512 20.8698 25.9558 20.651 25.9558 20.4414C25.9649 20.2227 25.9695 20.013 25.9695 19.8125C25.9695 18.8372 25.778 18.1263 25.3952 17.6797C25.0215 17.2331 24.42 17.0098 23.5905 17.0098C23.0528 17.0098 22.5879 17.1191 22.196 17.3379C21.8132 17.5566 21.6081 17.8118 21.5808 18.1035C21.5717 18.1491 21.5671 18.2083 21.5671 18.2812C21.5124 19.1927 20.9382 19.6484 19.8445 19.6484C19.4343 19.6484 19.1198 19.5801 18.9011 19.4434C18.6823 19.3066 18.573 19.1061 18.573 18.8418C18.573 18.1126 19.2429 17.2969 20.5827 16.3945C21.9317 15.4831 23.3445 15.0273 24.821 15.0273C26.2611 15.0273 27.3549 15.4056 28.1023 16.1621C28.8497 16.9095 29.2234 18.0078 29.2234 19.457C29.2234 19.8945 29.1869 20.8014 29.114 22.1777C29.0502 23.5449 29.0183 24.6979 29.0183 25.6367C29.0183 26.1927 29.0912 26.5938 29.237 26.8398C29.3829 27.0859 29.6107 27.209 29.9206 27.209C30.0938 27.209 30.308 27.1634 30.5632 27.0723C30.8184 26.9811 31.1055 26.849 31.4245 26.6758ZM37.0366 12.6484L38.2397 12.9902C38.185 13.5007 38.1349 13.9883 38.0893 14.4531C38.0528 14.9089 38.0301 15.3418 38.0209 15.752C39.2149 15.752 40.1036 15.7428 40.687 15.7246C41.2703 15.7064 41.808 15.679 42.3002 15.6426L41.9448 17.5156C41.3705 17.4701 40.7508 17.4382 40.0854 17.4199C39.4291 17.3926 38.741 17.3835 38.0209 17.3926C37.9936 18.5957 37.9708 19.6257 37.9526 20.4824C37.9435 21.3301 37.9389 21.9954 37.9389 22.4785C37.9389 24.4746 38.0802 25.778 38.3627 26.3887C38.6544 26.9902 39.1648 27.291 39.894 27.291C40.1857 27.291 40.5183 27.2318 40.892 27.1133C41.2657 26.9948 41.6896 26.8125 42.1635 26.5664L42.6967 27.7148C41.6941 28.2799 40.8009 28.7083 40.017 29C39.2332 29.3008 38.586 29.4512 38.0756 29.4512C36.909 29.4512 36.0476 29.0866 35.4916 28.3574C34.9357 27.6191 34.6577 26.4798 34.6577 24.9395C34.6577 24.6387 34.6804 23.6497 34.726 21.9727C34.7807 20.2956 34.808 18.7643 34.808 17.3789C34.7898 17.3789 34.5711 17.388 34.1518 17.4062C33.7416 17.4245 33.2586 17.4427 32.7026 17.4609V16.1484C33.7599 15.9935 34.644 15.6289 35.3549 15.0547C36.075 14.4714 36.6355 13.6693 37.0366 12.6484ZM52.3146 22.4785C52.1141 22.5332 51.8224 22.6152 51.4396 22.7246C48.8328 23.4447 47.5295 24.2969 47.5295 25.2812C47.5295 25.8281 47.7072 26.2884 48.0627 26.6621C48.4181 27.0267 48.8647 27.209 49.4025 27.209C49.7489 27.209 50.1408 27.1224 50.5783 26.9492C51.0249 26.776 51.6037 26.4798 52.3146 26.0605V22.4785ZM57.7697 26.6758L58.2755 27.7148C57.4461 28.2617 56.6987 28.6719 56.0334 28.9453C55.3771 29.2096 54.7892 29.3418 54.2697 29.3418C53.6408 29.3418 53.1577 29.1823 52.8205 28.8633C52.4923 28.5352 52.3009 28.043 52.2463 27.3867C51.2528 28.0794 50.4142 28.5807 49.7306 28.8906C49.047 29.1914 48.4318 29.3418 47.8849 29.3418C46.9279 29.3418 46.1121 28.9727 45.4377 28.2344C44.7632 27.487 44.4259 26.5938 44.4259 25.5547C44.4259 23.8047 46.381 22.4785 50.2912 21.5762C51.1388 21.3757 51.8042 21.2161 52.2873 21.0977C52.2964 20.8698 52.3009 20.651 52.3009 20.4414C52.3101 20.2227 52.3146 20.013 52.3146 19.8125C52.3146 18.8372 52.1232 18.1263 51.7404 17.6797C51.3667 17.2331 50.7651 17.0098 49.9357 17.0098C49.3979 17.0098 48.9331 17.1191 48.5412 17.3379C48.1584 17.5566 47.9533 17.8118 47.9259 18.1035C47.9168 18.1491 47.9123 18.2083 47.9123 18.2812C47.8576 19.1927 47.2834 19.6484 46.1896 19.6484C45.7795 19.6484 45.465 19.5801 45.2463 19.4434C45.0275 19.3066 44.9181 19.1061 44.9181 18.8418C44.9181 18.1126 45.588 17.2969 46.9279 16.3945C48.2768 15.4831 49.6896 15.0273 51.1662 15.0273C52.6063 15.0273 53.7 15.4056 54.4474 16.1621C55.1948 16.9095 55.5685 18.0078 55.5685 19.457C55.5685 19.8945 55.5321 20.8014 55.4591 22.1777C55.3953 23.5449 55.3634 24.6979 55.3634 25.6367C55.3634 26.1927 55.4364 26.5938 55.5822 26.8398C55.728 27.0859 55.9559 27.209 56.2658 27.209C56.439 27.209 56.6532 27.1634 56.9084 27.0723C57.1636 26.9811 57.4507 26.849 57.7697 26.6758ZM65.829 16.3125C64.9996 16.3125 64.3433 16.6042 63.8602 17.1875C63.3772 17.7708 63.1356 18.5729 63.1356 19.5938C63.1356 20.7148 63.3772 21.5944 63.8602 22.2324C64.3433 22.8613 65.0178 23.1758 65.8837 23.1758C66.7404 23.1758 67.4104 22.8932 67.8934 22.3281C68.3765 21.7539 68.618 20.9518 68.618 19.9219C68.618 18.7279 68.3811 17.8301 67.9071 17.2285C67.4423 16.6178 66.7496 16.3125 65.829 16.3125ZM63.3817 29.2188C63.0171 29.6016 62.7483 29.9661 62.5751 30.3125C62.411 30.6589 62.329 31.0052 62.329 31.3516C62.329 32.1536 62.689 32.8236 63.4091 33.3613C64.1291 33.9082 65.0451 34.1816 66.1571 34.1816C67.4423 34.1816 68.5178 33.8763 69.3837 33.2656C70.2587 32.6549 70.6962 31.9258 70.6962 31.0781C70.6962 30.3854 70.4318 29.9023 69.9032 29.6289C69.3837 29.3555 68.3127 29.2188 66.6903 29.2188H63.3817ZM69.4657 15.957C70.5139 15.957 71.316 15.9479 71.872 15.9297C72.4371 15.9115 72.9703 15.8796 73.4716 15.834L73.4305 17.4609C73.0295 17.4154 72.592 17.3835 72.118 17.3652C71.6532 17.3379 71.1154 17.3242 70.5048 17.3242C70.9149 17.6979 71.2157 18.1035 71.4071 18.541C71.6076 18.9694 71.7079 19.4388 71.7079 19.9492C71.7079 21.2161 71.1701 22.278 70.0946 23.1348C69.0282 23.9824 67.6884 24.4062 66.0751 24.4062C65.911 24.4062 65.6057 24.3926 65.1591 24.3652C65.0679 24.3561 64.9996 24.3516 64.954 24.3516C64.7626 24.4701 64.5666 24.6068 64.3661 24.7617C64.1747 24.9076 63.9514 25.099 63.6962 25.3359C63.8876 25.6185 64.079 25.86 64.2704 26.0605C64.4618 26.2611 64.6623 26.4388 64.872 26.5938H66.3485H68.9598C70.4273 26.5938 71.5165 26.8672 72.2274 27.4141C72.9384 27.9518 73.2938 28.7812 73.2938 29.9023C73.2938 30.6497 73.0614 31.4108 72.5966 32.1855C72.1408 32.9603 71.4983 33.653 70.6688 34.2637C69.8941 34.847 68.9963 35.3027 67.9755 35.6309C66.9546 35.9681 65.9475 36.1367 64.954 36.1367C63.368 36.1367 62.0692 35.7721 61.0575 35.043C60.0549 34.3138 59.5536 33.4023 59.5536 32.3086C59.5536 31.6432 59.7723 31.0098 60.2098 30.4082C60.6473 29.8158 61.3811 29.1595 62.411 28.4395C62.0009 28.0566 61.6636 27.6693 61.3993 27.2773C61.135 26.8763 60.9208 26.4434 60.7567 25.9785C61.094 25.6322 61.4859 25.2995 61.9325 24.9805C62.3791 24.6615 62.8804 24.3516 63.4364 24.0508C62.2971 23.7682 61.4266 23.2852 60.8251 22.6016C60.2326 21.9089 59.9364 21.0384 59.9364 19.9902C59.9364 18.6139 60.5061 17.4427 61.6454 16.4766C62.7847 15.5104 64.1792 15.0273 65.829 15.0273C66.5673 15.0273 67.219 15.1003 67.7841 15.2461C68.3583 15.3919 68.9188 15.6289 69.4657 15.957ZM82.4469 16.8184C81.3258 16.8184 80.4553 17.2376 79.8355 18.0762C79.2249 18.9056 78.9195 20.0814 78.9195 21.6035C78.9195 23.4538 79.2704 24.9212 79.9723 26.0059C80.6741 27.0905 81.6174 27.6328 82.8023 27.6328C83.9326 27.6328 84.8212 27.1953 85.4684 26.3203C86.1246 25.4453 86.4527 24.2467 86.4527 22.7246C86.4527 20.9108 86.0882 19.4753 85.359 18.418C84.6389 17.3516 83.6682 16.8184 82.4469 16.8184ZM82.7203 15.0273C84.8622 15.0273 86.6168 15.6882 87.984 17.0098C89.3512 18.3223 90.0348 19.9857 90.0348 22C90.0348 24.1146 89.3193 25.8828 87.8883 27.3047C86.4664 28.7174 84.6891 29.4238 82.5563 29.4238C80.4234 29.4238 78.6826 28.7585 77.3336 27.4277C75.9846 26.097 75.3102 24.3926 75.3102 22.3145C75.3102 20.2728 76.0302 18.5501 77.4703 17.1465C78.9195 15.7337 80.6695 15.0273 82.7203 15.0273ZM97.1917 15L96.973 17.2422C98.0667 16.4583 99.001 15.8887 99.7757 15.5332C100.55 15.1777 101.239 15 101.84 15C103.271 15 104.347 15.4193 105.067 16.2578C105.796 17.0872 106.16 18.3177 106.16 19.9492C106.16 20.2591 106.151 20.9792 106.133 22.1094C106.115 23.2305 106.106 24.2012 106.106 25.0215C106.106 26.3613 106.201 27.168 106.393 27.4414C106.593 27.7148 106.99 27.8516 107.582 27.8516H107.869L107.842 29C107.031 28.9453 106.338 28.9043 105.764 28.877C105.19 28.8496 104.725 28.8359 104.369 28.8359C103.987 28.8359 103.513 28.8496 102.948 28.877C102.392 28.9043 101.744 28.9453 101.006 29V27.8516H101.17C102.3 27.8516 102.879 26.7122 102.907 24.4336C102.907 24.3607 102.907 24.306 102.907 24.2695V21.3848C102.907 19.8079 102.724 18.7461 102.36 18.1992C101.995 17.6523 101.375 17.3789 100.5 17.3789C100.026 17.3789 99.5159 17.4792 98.9691 17.6797C98.4222 17.8711 97.8206 18.1719 97.1644 18.582C97.1279 19.4023 97.1006 20.2546 97.0823 21.1387C97.0641 22.0228 97.055 22.9707 97.055 23.9824V25.1035C97.055 26.334 97.1507 27.0996 97.3421 27.4004C97.5426 27.7012 97.9346 27.8516 98.5179 27.8516H98.7366V29C97.971 28.9453 97.3011 28.9043 96.7269 28.877C96.1527 28.8496 95.665 28.8359 95.264 28.8359C94.8721 28.8359 94.389 28.8496 93.8148 28.877C93.2405 28.9043 92.5752 28.9453 91.8187 29V27.8516H92.1331C93.2633 27.8516 93.8376 26.7077 93.8558 24.4199C93.8558 24.1465 93.8603 23.9368 93.8695 23.791L93.8968 20.9609V19.7578C93.8968 18.7279 93.8148 18.0625 93.6507 17.7617C93.4958 17.4518 93.2041 17.2969 92.7757 17.2969C92.6937 17.2969 92.5114 17.3105 92.2288 17.3379C92.1741 17.347 92.1331 17.3516 92.1058 17.3516L92.0238 16.2852C92.7803 16.1667 93.5778 16.0026 94.4163 15.793C95.2549 15.5833 96.18 15.319 97.1917 15ZM113.181 8.13672L114.425 8.98438C114.735 9.19401 114.963 9.41276 115.108 9.64062C115.263 9.86849 115.341 10.1146 115.341 10.3789C115.341 10.6523 115.282 10.8893 115.163 11.0898C115.045 11.2812 114.835 11.4818 114.534 11.6914L113.208 12.5938L111.978 11.7734C111.649 11.5638 111.403 11.3451 111.239 11.1172C111.084 10.8893 111.007 10.6523 111.007 10.4062C111.007 10.1328 111.071 9.89128 111.198 9.68164C111.326 9.47201 111.558 9.2487 111.896 9.01172L113.181 8.13672ZM115.095 15C115.04 16.9688 114.995 18.6868 114.958 20.1543C114.931 21.6217 114.917 22.8249 114.917 23.7637V25.3633C114.917 26.4297 115.022 27.1133 115.231 27.4141C115.45 27.7057 115.86 27.8516 116.462 27.8516C116.508 27.8516 116.576 27.847 116.667 27.8379C116.767 27.8288 116.849 27.8242 116.913 27.8242V29C116.075 28.9453 115.341 28.9043 114.712 28.877C114.083 28.8496 113.564 28.8359 113.153 28.8359C112.807 28.8359 112.338 28.8496 111.745 28.877C111.162 28.9043 110.465 28.9453 109.653 29V27.8242H109.94C111.107 27.8242 111.695 26.7487 111.704 24.5977C111.704 24.2513 111.704 23.9824 111.704 23.791L111.731 20.8789V19.6758C111.731 18.6549 111.649 17.9987 111.485 17.707C111.321 17.4154 111.002 17.2695 110.528 17.2695C110.465 17.2695 110.319 17.2786 110.091 17.2969C109.991 17.306 109.913 17.3151 109.858 17.3242L109.653 16.2305C110.62 16.1029 111.549 15.9388 112.442 15.7383C113.336 15.5378 114.22 15.2917 115.095 15ZM126.941 22.4785C126.741 22.5332 126.449 22.6152 126.066 22.7246C123.459 23.4447 122.156 24.2969 122.156 25.2812C122.156 25.8281 122.334 26.2884 122.689 26.6621C123.045 27.0267 123.491 27.209 124.029 27.209C124.375 27.209 124.767 27.1224 125.205 26.9492C125.651 26.776 126.23 26.4798 126.941 26.0605V22.4785ZM132.396 26.6758L132.902 27.7148C132.073 28.2617 131.325 28.6719 130.66 28.9453C130.004 29.2096 129.416 29.3418 128.896 29.3418C128.267 29.3418 127.784 29.1823 127.447 28.8633C127.119 28.5352 126.927 28.043 126.873 27.3867C125.879 28.0794 125.041 28.5807 124.357 28.8906C123.674 29.1914 123.058 29.3418 122.511 29.3418C121.554 29.3418 120.739 28.9727 120.064 28.2344C119.39 27.487 119.052 26.5938 119.052 25.5547C119.052 23.8047 121.008 22.4785 124.918 21.5762C125.765 21.3757 126.431 21.2161 126.914 21.0977C126.923 20.8698 126.927 20.651 126.927 20.4414C126.937 20.2227 126.941 20.013 126.941 19.8125C126.941 18.8372 126.75 18.1263 126.367 17.6797C125.993 17.2331 125.392 17.0098 124.562 17.0098C124.025 17.0098 123.56 17.1191 123.168 17.3379C122.785 17.5566 122.58 17.8118 122.552 18.1035C122.543 18.1491 122.539 18.2083 122.539 18.2812C122.484 19.1927 121.91 19.6484 120.816 19.6484C120.406 19.6484 120.092 19.5801 119.873 19.4434C119.654 19.3066 119.545 19.1061 119.545 18.8418C119.545 18.1126 120.215 17.2969 121.554 16.3945C122.903 15.4831 124.316 15.0273 125.793 15.0273C127.233 15.0273 128.327 15.4056 129.074 16.1621C129.821 16.9095 130.195 18.0078 130.195 19.457C130.195 19.8945 130.159 20.8014 130.086 22.1777C130.022 23.5449 129.99 24.6979 129.99 25.6367C129.99 26.1927 130.063 26.5938 130.209 26.8398C130.355 27.0859 130.582 27.209 130.892 27.209C131.066 27.209 131.28 27.1634 131.535 27.0723C131.79 26.9811 132.077 26.849 132.396 26.6758Z" fill="black"/>
<path d="M3.99751 37.0909V48H3.34766V37.0909H3.99751ZM11.479 45.0969V39.8182H12.1288V48H11.479V46.6737H11.4257C11.2339 47.0962 10.9232 47.4407 10.4935 47.707C10.0674 47.9734 9.56314 48.1065 8.98075 48.1065C8.44453 48.1065 7.97045 47.9893 7.55852 47.755C7.14659 47.5206 6.82344 47.1886 6.58906 46.7589C6.35469 46.3256 6.2375 45.8107 6.2375 45.2141V39.8182H6.88736V45.1875C6.88736 45.8693 7.09332 46.4215 7.50526 46.8441C7.92074 47.2631 8.45696 47.4727 9.11392 47.4727C9.54006 47.4727 9.93246 47.3768 10.2911 47.185C10.6498 46.9933 10.9374 46.7198 11.154 46.3647C11.3707 46.006 11.479 45.5835 11.479 45.0969ZM14.6165 39.8182L16.875 43.4563L19.1336 39.8182H19.8846L17.2639 43.9091L19.8846 48H19.1336L16.875 44.4205L14.6165 48H13.8601L16.4702 43.9091L13.8601 39.8182H14.6165ZM26.8534 45.0969V39.8182H27.5032V48H26.8534V46.6737H26.8001C26.6084 47.0962 26.2976 47.4407 25.868 47.707C25.4418 47.9734 24.9376 48.1065 24.3552 48.1065C23.8189 48.1065 23.3449 47.9893 22.9329 47.755C22.521 47.5206 22.1979 47.1886 21.9635 46.7589C21.7291 46.3256 21.6119 45.8107 21.6119 45.2141V39.8182H22.2618V45.1875C22.2618 45.8693 22.4677 46.4215 22.8797 46.8441C23.2952 47.2631 23.8314 47.4727 24.4883 47.4727C24.9145 47.4727 25.3069 47.3768 25.6655 47.185C26.0242 46.9933 26.3118 46.7198 26.5285 46.3647C26.7451 46.006 26.8534 45.5835 26.8534 45.0969ZM29.7459 48V39.8182H30.3798V41.0966H30.4384C30.6159 40.6776 30.916 40.342 31.3386 40.0898C31.7612 39.8342 32.2423 39.7063 32.7821 39.7063C32.8389 39.7063 32.8958 39.7063 32.9526 39.7063C33.0094 39.7063 33.0627 39.7081 33.1124 39.7116V40.3668C33.0698 40.3633 33.0183 40.358 32.9579 40.3509C32.9011 40.3402 32.8301 40.3349 32.7448 40.3349C32.2903 40.3349 31.8855 40.4325 31.5303 40.6278C31.1788 40.8232 30.9018 41.093 30.6994 41.4375C30.497 41.7784 30.3958 42.169 30.3958 42.6094V48H29.7459ZM35.1792 51.0682C35.0159 51.0682 34.8543 51.0504 34.6945 51.0149C34.5347 50.9794 34.3909 50.9332 34.2631 50.8764L34.4548 50.3065C34.7886 50.4343 35.0905 50.4805 35.3604 50.445C35.6338 50.4094 35.8753 50.2852 36.0848 50.0721C36.2943 49.859 36.4719 49.5465 36.6175 49.1346L36.9903 48.1119L33.9914 39.8182H34.6892L37.2886 47.1637H37.3419L39.9413 39.8182H40.6391L37.1874 49.3903C37.056 49.7596 36.8909 50.0685 36.692 50.3171C36.4932 50.5657 36.2659 50.7521 36.0102 50.8764C35.7581 51.0043 35.4811 51.0682 35.1792 51.0682Z" fill="black"/>
<path d="M49.9018 39L52.135 40.5215C52.6912 40.8978 53.1002 41.2904 53.362 41.6994C53.6401 42.1084 53.7791 42.5501 53.7791 43.0245C53.7791 43.5153 53.6728 43.9407 53.4601 44.3006C53.2474 44.6442 52.8712 45.0041 52.3313 45.3804L49.9509 47L47.7423 45.5276C47.1534 45.1513 46.7117 44.7587 46.4172 44.3497C46.1391 43.9407 46 43.5153 46 43.0736C46 42.5828 46.1145 42.1493 46.3436 41.773C46.5726 41.3967 46.9898 40.9959 47.5951 40.5706L49.9018 39Z" fill="black"/>
<path d="M62.2949 48.1758C61.8226 48.1758 61.3894 48.0817 60.9952 47.8935C60.6046 47.7053 60.2903 47.43 60.0524 47.0678C59.818 46.7056 59.7008 46.2653 59.7008 45.7468C59.7008 45.4059 59.7612 45.1058 59.8819 44.8466C60.0027 44.5874 60.1891 44.3636 60.4412 44.1754C60.6934 43.9872 61.0165 43.8327 61.4107 43.712C61.8049 43.5877 62.2754 43.4918 62.8223 43.4244C63.2377 43.3746 63.6088 43.3267 63.9355 43.2805C64.2623 43.2308 64.5179 43.1545 64.7026 43.0515C64.8908 42.9485 64.9849 42.7923 64.9849 42.5827V42.2418C64.9849 41.6452 64.7967 41.1712 64.4203 40.8196C64.0439 40.468 63.5254 40.2923 62.8649 40.2923C62.2789 40.2923 61.7853 40.4219 61.3841 40.6811C60.9863 40.9368 60.7076 41.267 60.5478 41.6719L59.9352 41.4428C60.0914 41.0522 60.3169 40.7273 60.6117 40.468C60.91 40.2088 61.2509 40.0153 61.6344 39.8874C62.0215 39.7596 62.4263 39.6957 62.8489 39.6957C63.2147 39.6957 63.5627 39.7472 63.8929 39.8501C64.2267 39.9531 64.5233 40.1094 64.7825 40.3189C65.0453 40.5284 65.253 40.7965 65.4057 41.1232C65.5584 41.4464 65.6348 41.8335 65.6348 42.2844V48H64.9849V46.5245H64.937C64.7949 46.8299 64.5996 47.1087 64.351 47.3608C64.106 47.6094 63.8095 47.8082 63.4615 47.9574C63.117 48.103 62.7282 48.1758 62.2949 48.1758ZM62.3588 47.5739C62.8702 47.5739 63.323 47.4496 63.7172 47.201C64.1149 46.9489 64.4256 46.6044 64.6493 46.1676C64.873 45.7308 64.9849 45.2354 64.9849 44.6815V43.4776C64.9032 43.5487 64.7843 43.6126 64.628 43.6694C64.4753 43.7227 64.3013 43.7706 64.106 43.8132C63.9142 43.8523 63.7118 43.8878 63.4988 43.9197C63.2892 43.9482 63.085 43.9748 62.8862 43.9996C62.2896 44.0707 61.8031 44.1808 61.4267 44.3299C61.0538 44.4755 60.7804 44.6673 60.6064 44.9052C60.4359 45.1431 60.3507 45.4308 60.3507 45.7681C60.3507 46.3256 60.5424 46.766 60.926 47.0891C61.3095 47.4123 61.7871 47.5739 62.3588 47.5739ZM70.7165 48.1705C70.0596 48.1705 69.4861 47.9893 68.996 47.6271C68.506 47.2649 68.126 46.766 67.8561 46.1303C67.5898 45.4911 67.4566 44.7578 67.4566 43.9304C67.4566 43.1101 67.5915 42.3821 67.8614 41.7464C68.1349 41.1072 68.5166 40.6065 69.0067 40.2443C69.4967 39.8786 70.0685 39.6957 70.7219 39.6957C71.1906 39.6957 71.5972 39.7862 71.9417 39.9673C72.2897 40.1449 72.5809 40.381 72.8153 40.6758C73.0532 40.9705 73.2343 41.2937 73.3586 41.6452H73.4225V37.0909H74.067V48H73.4385V46.2156H73.3586C73.2272 46.5671 73.0443 46.892 72.8099 47.1903C72.5756 47.4851 72.2844 47.723 71.9364 47.9041C71.5884 48.0817 71.1817 48.1705 70.7165 48.1705ZM70.7751 47.5685C71.3291 47.5685 71.8032 47.4105 72.1974 47.0945C72.5951 46.7749 72.8987 46.3416 73.1082 45.7947C73.3213 45.2443 73.4278 44.6211 73.4278 43.9251C73.4278 43.229 73.3213 42.6094 73.1082 42.0661C72.8987 41.5192 72.5951 41.0895 72.1974 40.777C71.8032 40.4609 71.3291 40.3029 70.7751 40.3029C70.2141 40.3029 69.7329 40.4627 69.3316 40.7823C68.9339 41.0984 68.6285 41.5298 68.4154 42.0767C68.2059 42.6236 68.1011 43.2397 68.1011 43.9251C68.1011 44.6104 68.2059 45.2283 68.4154 45.7788C68.6285 46.3292 68.9339 46.766 69.3316 47.0891C69.7329 47.4087 70.2141 47.5685 70.7751 47.5685ZM82.5233 39.8182L79.567 48H78.8319L75.8756 39.8182H76.5734L79.1728 47.1637H79.2261L81.8255 39.8182H82.5233ZM87.0018 48.1705C86.2632 48.1705 85.6204 47.9876 85.0736 47.6218C84.5267 47.256 84.1041 46.7553 83.8058 46.1197C83.5075 45.484 83.3584 44.7596 83.3584 43.9464C83.3584 43.1296 83.5075 42.4016 83.8058 41.7624C84.1077 41.1232 84.5214 40.619 85.0469 40.2496C85.5725 39.8803 86.1726 39.6957 86.8474 39.6957C87.3055 39.6957 87.7387 39.788 88.1471 39.9727C88.559 40.1538 88.9212 40.4165 89.2337 40.761C89.5498 41.1055 89.7966 41.521 89.9741 42.0075C90.1552 42.494 90.2458 43.0408 90.2458 43.6481V44.0529H83.7685V43.4616H89.5959C89.5959 42.8686 89.4752 42.3342 89.2337 41.8583C88.9922 41.3825 88.6638 41.0043 88.2483 40.7237C87.8328 40.4432 87.3658 40.3029 86.8474 40.3029C86.304 40.3029 85.8193 40.4556 85.3932 40.761C84.9706 41.0629 84.635 41.4712 84.3864 41.9862C84.1414 42.5011 84.0135 43.0763 84.0029 43.712V43.9783C84.0029 44.6602 84.1219 45.2727 84.3598 45.8161C84.6013 46.3558 84.9457 46.7837 85.3932 47.0998C85.8406 47.4123 86.3768 47.5685 87.0018 47.5685C87.4493 47.5685 87.831 47.494 88.1471 47.3448C88.4667 47.1921 88.7277 47.0075 88.9301 46.7908C89.1325 46.5742 89.2852 46.3647 89.3882 46.1623L89.9795 46.402C89.8552 46.6754 89.6616 46.9489 89.3988 47.2223C89.1396 47.4922 88.8094 47.7177 88.4081 47.8988C88.0104 48.0799 87.5416 48.1705 87.0018 48.1705ZM92.6829 42.6946V48H92.033V39.8182H92.6669V41.1126H92.7308C92.9226 40.69 93.2297 40.3509 93.6523 40.0952C94.0749 39.8395 94.5774 39.7116 95.1598 39.7116C95.7102 39.7116 96.1932 39.8288 96.6086 40.0632C97.0277 40.2976 97.3544 40.6314 97.5888 41.0646C97.8267 41.4943 97.9457 42.0075 97.9457 42.604V48H97.2958V42.6307C97.2958 41.9347 97.0881 41.3754 96.6726 40.9528C96.2606 40.5266 95.7155 40.3136 95.0373 40.3136C94.5827 40.3136 94.1779 40.413 93.8228 40.6119C93.4677 40.8107 93.1889 41.0895 92.9865 41.4482C92.7841 41.8033 92.6829 42.2188 92.6829 42.6946ZM103.089 39.8182V40.3988H99.5145V39.8182H103.089ZM100.724 37.858H101.368V46.0664C101.368 46.4002 101.432 46.6737 101.56 46.8867C101.691 47.0962 101.862 47.2525 102.071 47.3555C102.284 47.4549 102.512 47.5046 102.753 47.5046C102.87 47.5046 102.972 47.4957 103.057 47.478C103.146 47.4602 103.229 47.4371 103.307 47.4087L103.467 48C103.367 48.0355 103.257 48.0657 103.137 48.0906C103.016 48.119 102.874 48.1332 102.71 48.1332C102.37 48.1332 102.046 48.0568 101.741 47.9041C101.439 47.7514 101.194 47.5295 101.006 47.2383C100.818 46.9471 100.724 46.5955 100.724 46.1836V37.858ZM110.291 45.0969V39.8182H110.94V48H110.291V46.6737H110.237C110.045 47.0962 109.735 47.4407 109.305 47.707C108.879 47.9734 108.375 48.1065 107.792 48.1065C107.256 48.1065 106.782 47.9893 106.37 47.755C105.958 47.5206 105.635 47.1886 105.401 46.7589C105.166 46.3256 105.049 45.8107 105.049 45.2141V39.8182H105.699V45.1875C105.699 45.8693 105.905 46.4215 106.317 46.8441C106.732 47.2631 107.268 47.4727 107.925 47.4727C108.352 47.4727 108.744 47.3768 109.103 47.185C109.461 46.9933 109.749 46.7198 109.966 46.3647C110.182 46.006 110.291 45.5835 110.291 45.0969ZM113.183 48V39.8182H113.817V41.0966H113.875C114.053 40.6776 114.353 40.342 114.776 40.0898C115.198 39.8342 115.679 39.7063 116.219 39.7063C116.276 39.7063 116.333 39.7063 116.39 39.7063C116.447 39.7063 116.5 39.7081 116.549 39.7116V40.3668C116.507 40.3633 116.455 40.358 116.395 40.3509C116.338 40.3402 116.267 40.3349 116.182 40.3349C115.727 40.3349 115.323 40.4325 114.967 40.6278C114.616 40.8232 114.339 41.093 114.136 41.4375C113.934 41.7784 113.833 42.169 113.833 42.6094V48H113.183ZM120.787 48.1705C120.048 48.1705 119.406 47.9876 118.859 47.6218C118.312 47.256 117.889 46.7553 117.591 46.1197C117.293 45.484 117.144 44.7596 117.144 43.9464C117.144 43.1296 117.293 42.4016 117.591 41.7624C117.893 41.1232 118.307 40.619 118.832 40.2496C119.358 39.8803 119.958 39.6957 120.633 39.6957C121.091 39.6957 121.524 39.788 121.932 39.9727C122.344 40.1538 122.706 40.4165 123.019 40.761C123.335 41.1055 123.582 41.521 123.759 42.0075C123.94 42.494 124.031 43.0408 124.031 43.6481V44.0529H117.554V43.4616H123.381C123.381 42.8686 123.26 42.3342 123.019 41.8583C122.777 41.3825 122.449 41.0043 122.033 40.7237C121.618 40.4432 121.151 40.3029 120.633 40.3029C120.089 40.3029 119.604 40.4556 119.178 40.761C118.756 41.0629 118.42 41.4712 118.172 41.9862C117.927 42.5011 117.799 43.0763 117.788 43.712V43.9783C117.788 44.6602 117.907 45.2727 118.145 45.8161C118.386 46.3558 118.731 46.7837 119.178 47.0998C119.626 47.4123 120.162 47.5685 120.787 47.5685C121.234 47.5685 121.616 47.494 121.932 47.3448C122.252 47.1921 122.513 47.0075 122.715 46.7908C122.918 46.5742 123.07 46.3647 123.173 46.1623L123.765 46.402C123.64 46.6754 123.447 46.9489 123.184 47.2223C122.925 47.4922 122.595 47.7177 122.193 47.8988C121.796 48.0799 121.327 48.1705 120.787 48.1705ZM131.017 41.5813L130.415 41.7411C130.319 41.4428 130.183 41.1854 130.005 40.9688C129.827 40.7521 129.604 40.5852 129.334 40.468C129.067 40.3473 128.748 40.2869 128.375 40.2869C127.775 40.2869 127.283 40.4361 126.899 40.7344C126.52 41.0327 126.33 41.4215 126.33 41.9009C126.33 42.2915 126.459 42.6147 126.718 42.8704C126.978 43.1225 127.374 43.3143 127.906 43.4457L129.163 43.7599C129.81 43.9197 130.296 44.179 130.623 44.5376C130.95 44.8928 131.113 45.3349 131.113 45.864C131.113 46.315 130.99 46.7145 130.745 47.0625C130.5 47.4105 130.161 47.6822 129.728 47.8775C129.298 48.0728 128.798 48.1705 128.226 48.1705C127.462 48.1705 126.836 47.9929 126.346 47.6378C125.855 47.2791 125.541 46.766 125.403 46.0984L126.026 45.9386C126.143 46.4712 126.386 46.8778 126.756 47.1584C127.129 47.4354 127.617 47.5739 128.221 47.5739C128.888 47.5739 129.426 47.4158 129.834 47.0998C130.246 46.7837 130.452 46.3789 130.452 45.8853C130.452 45.5089 130.332 45.1911 130.09 44.9318C129.849 44.6726 129.483 44.4826 128.993 44.3619L127.688 44.0423C127.02 43.8789 126.52 43.6179 126.186 43.2592C125.852 42.897 125.685 42.4513 125.685 41.9222C125.685 41.4819 125.8 41.0948 126.031 40.761C126.262 40.4272 126.58 40.1662 126.985 39.978C127.39 39.7898 127.853 39.6957 128.375 39.6957C129.067 39.6957 129.632 39.859 130.069 40.1857C130.506 40.5124 130.822 40.9776 131.017 41.5813Z" fill="black"/>
</svg>
