<svg width="60" height="60" viewBox="0 0 60 60" fill="none" xmlns="http://www.w3.org/2000/svg">
<path fill-rule="evenodd" clip-rule="evenodd" d="M47.5 25.0071C47.5 29.491 46.25 32.5 43.044 36.6785L32.0054 51.4942C31.0055 52.8362 28.995 52.8358 27.9956 51.4935L17.0058 36.7338C15 33.75 12.5 29.5177 12.5 25.0071C12.5 15.3382 20.335 7.5 30 7.5C39.665 7.5 47.5 15.3382 47.5 25.0071ZM30 30C32.7614 30 35 27.7614 35 25C35 22.2386 32.7614 20 30 20C27.2386 20 25 22.2386 25 25C25 27.7614 27.2386 30 30 30Z" fill="black"/>
</svg>
