<svg width="60" height="60" viewBox="0 0 60 60" fill="none" xmlns="http://www.w3.org/2000/svg">
<path fill-rule="evenodd" clip-rule="evenodd" d="M30 52.5C42.4264 52.5 52.5 42.4264 52.5 30C52.5 17.5736 42.4264 7.5 30 7.5C17.5736 7.5 7.5 17.5736 7.5 30C7.5 42.4264 17.5736 52.5 30 52.5ZM28.5455 39.7955L36.75 31.591C37.6287 30.7123 37.6287 29.2877 36.75 28.409L28.5455 20.2045C28.1062 19.7652 27.3938 19.7652 26.9545 20.2045C26.5152 20.6438 26.5152 21.3562 26.9545 21.7955L35.159 30L26.9545 38.2045C26.5152 38.6438 26.5152 39.3562 26.9545 39.7955C27.3938 40.2348 28.1062 40.2348 28.5455 39.7955Z" fill="black"/>
</svg>
