<svg width="60" height="60" viewBox="0 0 60 60" fill="none" xmlns="http://www.w3.org/2000/svg">
<path d="M30 14.8168C29.7209 14.4629 29.4225 14.1228 29.1056 13.7981C26.7321 11.3662 23.5129 10 20.1563 10C16.7996 10 13.5804 11.3662 11.2069 13.7981C8.83342 16.2299 7.5 19.5282 7.5 22.9674C7.90155 34.6438 18.75 43.3333 27.8038 48.9711C30 50.343 30 50.343 32.1962 48.9711C40 44.6667 51.9801 33.1306 52.5 22.9674C52.5 19.5282 51.1666 16.2299 48.7931 13.7981C46.4196 11.3662 43.2004 10 39.8438 10C36.4871 10 33.2679 11.3662 30.8944 13.7981C30.5775 14.1228 30.2791 14.4629 30 14.8168Z" fill="black"/>
</svg>
